<svg width="49" height="49" viewBox="0 0 49 49" fill="none" xmlns="http://www.w3.org/2000/svg">
<g id="Telegram/black">
<path id="Subtract" fill-rule="evenodd" clip-rule="evenodd" d="M49 24.5C49 38.031 38.031 49 24.5 49C10.969 49 0 38.031 0 24.5C0 10.969 10.969 0 24.5 0C38.031 0 49 10.969 49 24.5ZM16.4063 22.2557C13.9521 23.3273 11.4303 24.4283 9.12447 25.6984L9.1243 25.6986C7.92025 26.5802 9.52068 27.2037 11.022 27.7886C11.2607 27.8816 11.4969 27.9736 11.7189 28.0655C11.9036 28.1223 12.0915 28.1821 12.2818 28.2428C13.9516 28.7748 15.8135 29.368 17.4345 28.4756C20.0974 26.9459 22.6104 25.1774 25.1215 23.4102C25.9443 22.8312 26.7667 22.2524 27.5942 21.6822C27.633 21.6574 27.6768 21.629 27.7246 21.598C28.4295 21.1411 30.0149 20.1134 29.4285 21.5294C28.0417 23.046 26.5564 24.3885 25.0629 25.7383C24.0564 26.6479 23.0463 27.5609 22.0601 28.5328C21.2012 29.2306 20.3094 30.634 21.2711 31.6112C23.4862 33.1619 25.736 34.675 27.9844 36.1873C28.7161 36.6794 29.4476 37.1714 30.1777 37.6645C31.4152 38.6525 33.3491 37.8534 33.6212 36.3095C33.7422 35.5993 33.8636 34.8892 33.9851 34.179C34.6564 30.2542 35.3279 26.328 35.9211 22.3904C36.0017 21.7728 36.0931 21.1552 36.1846 20.5372C36.4062 19.0396 36.6281 17.5401 36.6974 16.0343C36.5187 14.5317 34.6968 14.8621 33.6829 15.2C28.4713 17.183 23.3118 19.3131 18.1727 21.4807C17.5906 21.7387 17.0004 21.9963 16.4063 22.2557Z" fill="#362ABD"/>
</g>
</svg>
